# xmcd CD database file
#
# Track frame offsets:
#	150
#	16497
#	36793
#	49475
#	62557
#	81941
#	106462
#	118696
#	145546
#	164439
#	183510
#
# Disc length: 2598 seconds
#
# Revision: 0
# Processed by: cddbd v1.5.2PL0 Copyright (c) Steve Scherf et al.
# Submitted via: CDex 1.70beta2
#
DISCID=950a240b
DTITLE=Ketty-K - 'S Wonderful - R-09B0337JV
DYEAR=2009
DGENRE=Jazz
TTITLE0=My Funny Valentine
TTITLE1=It Never Entered My Mind
TTITLE2='S Wonderful
TTITLE3=Teach Me Tonight
TTITLE4=Black Orpheus
TTITLE5=Someone to Watch Over Me
TTITLE6=I Can't Give You Anything But Love
TTITLE7=You Must Believe in Spring
TTITLE8=They Can't Take That Away from Me
TTITLE9=Sentimental Journey
TTITLE10=Till
EXTD=YEAR: 2009
EXTT0=
EXTT1=
EXTT2=
EXTT3=
EXTT4=
EXTT5=
EXTT6=
EXTT7=
EXTT8=
EXTT9=
EXTT10=
PLAYORDER=
